<svg width="70" height="82" viewBox="0 0 70 82" fill="none" xmlns="http://www.w3.org/2000/svg">
<path d="M35 18.6364C40.0632 18.6364 44.9191 20.9925 48.4993 25.1865C52.0796 29.3805 54.0909 35.0688 54.0909 41C54.0909 49.2745 50.2409 56.5055 44.5455 60.3818V67.0909C44.5455 68.0794 44.2102 69.0275 43.6135 69.7265C43.0168 70.4255 42.2075 70.8182 41.3636 70.8182H28.6364C27.7925 70.8182 26.9832 70.4255 26.3865 69.7265C25.7898 69.0275 25.4545 68.0794 25.4545 67.0909V60.3818C19.7591 56.5055 15.9091 49.2745 15.9091 41C15.9091 35.0688 17.9205 29.3805 21.5007 25.1865C25.0809 20.9925 29.9368 18.6364 35 18.6364ZM41.3636 74.5455V78.2727C41.3636 79.2613 41.0284 80.2093 40.4317 80.9083C39.835 81.6073 39.0257 82 38.1818 82H31.8182C30.9743 82 30.165 81.6073 29.5683 80.9083C28.9716 80.2093 28.6364 79.2613 28.6364 78.2727V74.5455H41.3636ZM60.4545 37.2727H70V44.7273H60.4545V37.2727ZM0 37.2727H9.54545V44.7273H0V37.2727ZM38.1818 0V11.1818H31.8182V0H38.1818ZM12.4727 9.31818L19.25 17.2945L14.7318 22.55L7.95455 14.6482L12.4727 9.31818ZM50.75 17.2573L57.4955 9.31818L62.0455 14.6482L55.2682 22.55L50.75 17.2573Z" fill="#E23288"/>
</svg>
