<svg width="25" height="27" viewBox="0 0 25 27" fill="none" xmlns="http://www.w3.org/2000/svg">
<g filter="url(#filter0_d_182_81)">
<circle cx="12.5" cy="12.5" r="12.5" fill="#DBD6D6"/>
</g>
<path d="M12.8049 10.6702C12.3828 10.6702 11.9702 10.7953 11.6193 11.0298C11.2683 11.2643 10.9948 11.5976 10.8332 11.9876C10.6717 12.3776 10.6294 12.8067 10.7118 13.2207C10.7941 13.6346 10.9974 14.0149 11.2959 14.3134C11.5943 14.6118 11.9746 14.8151 12.3886 14.8975C12.8026 14.9798 13.2317 14.9375 13.6216 14.776C14.0116 14.6145 14.3449 14.3409 14.5794 13.99C14.8139 13.639 14.9391 13.2264 14.9391 12.8043C14.9383 12.2385 14.7132 11.6961 14.3132 11.2961C13.9131 10.896 13.3707 10.6709 12.8049 10.6702Z" fill="#454444"/>
<path d="M20.2743 11.7371H19.0994C18.8771 10.4315 18.2547 9.22718 17.3182 8.2907C16.3818 7.35421 15.1775 6.73182 13.8719 6.50957V5.33465C13.8719 5.05165 13.7594 4.78023 13.5593 4.58012C13.3592 4.38 13.0878 4.26758 12.8048 4.26758C12.5218 4.26758 12.2504 4.38 12.0502 4.58012C11.8501 4.78023 11.7377 5.05165 11.7377 5.33465V6.50957C10.4321 6.73182 9.22779 7.35421 8.29131 8.2907C7.35482 9.22718 6.73243 10.4315 6.51018 11.7371H5.33526C5.05226 11.7371 4.78084 11.8495 4.58073 12.0496C4.38061 12.2497 4.26819 12.5212 4.26819 12.8042C4.26819 13.0872 4.38061 13.3586 4.58073 13.5587C4.78084 13.7588 5.05226 13.8712 5.33526 13.8712H6.51018C6.73243 15.1768 7.35482 16.3812 8.29131 17.3176C9.22779 18.2541 10.4321 18.8765 11.7377 19.0988V20.2737C11.7377 20.5567 11.8501 20.8281 12.0502 21.0282C12.2504 21.2283 12.5218 21.3408 12.8048 21.3408C13.0878 21.3408 13.3592 21.2283 13.5593 21.0282C13.7594 20.8281 13.8719 20.5567 13.8719 20.2737V19.0988C15.1775 18.8765 16.3818 18.2541 17.3182 17.3176C18.2547 16.3812 18.8771 15.1768 19.0994 13.8712H20.2743C20.5573 13.8712 20.8287 13.7588 21.0288 13.5587C21.2289 13.3586 21.3414 13.0872 21.3414 12.8042C21.3414 12.5212 21.2289 12.2497 21.0288 12.0496C20.8287 11.8495 20.5573 11.7371 20.2743 11.7371ZM12.8048 17.0725C11.9606 17.0725 11.1354 16.8221 10.4334 16.3531C9.73152 15.8841 9.18444 15.2175 8.86139 14.4376C8.53833 13.6576 8.4538 12.7994 8.6185 11.9715C8.78319 11.1435 9.18971 10.383 9.78664 9.78603C10.3836 9.1891 11.1441 8.78258 11.9721 8.61789C12.8 8.45319 13.6583 8.53772 14.4382 8.86078C15.2181 9.18383 15.8847 9.73091 16.3537 10.4328C16.8227 11.1347 17.0731 11.96 17.0731 12.8042C17.072 13.9358 16.6219 15.0209 15.8217 15.8211C15.0215 16.6213 13.9365 17.0713 12.8048 17.0725Z" fill="#2D2C2C"/>
<defs>
<filter id="filter0_d_182_81" x="0" y="0" width="25" height="27" filterUnits="userSpaceOnUse" color-interpolation-filters="sRGB">
<feFlood flood-opacity="0" result="BackgroundImageFix"/>
<feColorMatrix in="SourceAlpha" type="matrix" values="0 0 0 0 0 0 0 0 0 0 0 0 0 0 0 0 0 0 127 0" result="hardAlpha"/>
<feOffset dy="2"/>
<feComposite in2="hardAlpha" operator="out"/>
<feColorMatrix type="matrix" values="0 0 0 0 0 0 0 0 0 0 0 0 0 0 0 0 0 0 0.15 0"/>
<feBlend mode="normal" in2="BackgroundImageFix" result="effect1_dropShadow_182_81"/>
<feBlend mode="normal" in="SourceGraphic" in2="effect1_dropShadow_182_81" result="shape"/>
</filter>
</defs>
</svg>
