<svg width="71" height="71" viewBox="0 0 71 71" fill="none" xmlns="http://www.w3.org/2000/svg">
<path d="M31.95 56.8H39.05V49.7H31.95V56.8ZM35.5 0C30.8381 0 26.2218 0.918235 21.9147 2.70228C17.6077 4.48632 13.6942 7.10123 10.3977 10.3977C3.74017 17.0553 0 26.0848 0 35.5C0 44.9152 3.74017 53.9447 10.3977 60.6023C13.6942 63.8988 17.6077 66.5137 21.9147 68.2977C26.2218 70.0818 30.8381 71 35.5 71C44.9152 71 53.9447 67.2598 60.6023 60.6023C67.2598 53.9447 71 44.9152 71 35.5C71 30.8381 70.0818 26.2218 68.2977 21.9147C66.5137 17.6077 63.8988 13.6942 60.6023 10.3977C57.3058 7.10123 53.3923 4.48632 49.0853 2.70228C44.7782 0.918235 40.1619 0 35.5 0ZM35.5 63.9C19.8445 63.9 7.1 51.1555 7.1 35.5C7.1 19.8445 19.8445 7.1 35.5 7.1C51.1555 7.1 63.9 19.8445 63.9 35.5C63.9 51.1555 51.1555 63.9 35.5 63.9ZM35.5 14.2C31.7339 14.2 28.1221 15.6961 25.4591 18.3591C22.7961 21.0221 21.3 24.6339 21.3 28.4H28.4C28.4 26.517 29.148 24.7111 30.4795 23.3795C31.8111 22.048 33.617 21.3 35.5 21.3C37.383 21.3 39.1889 22.048 40.5205 23.3795C41.852 24.7111 42.6 26.517 42.6 28.4C42.6 35.5 31.95 34.6125 31.95 46.15H39.05C39.05 38.1625 49.7 37.275 49.7 28.4C49.7 24.6339 48.2039 21.0221 45.5409 18.3591C42.8779 15.6961 39.2661 14.2 35.5 14.2Z" fill="#E23288"/>
</svg>
