<svg width="100" height="100" viewBox="0 0 100 100" fill="none" xmlns="http://www.w3.org/2000/svg">
<path d="M21.4286 28.0952L11.2857 18L18 11.2857L28.0952 21.4286L21.4286 28.0952ZM54.7619 0V14.2857H45.2381V0H54.7619ZM88.7143 18L78.5714 28.0952L71.9048 21.4286L82 11.2857L88.7143 18ZM14.2857 45.2381V54.7619H0V45.2381H14.2857ZM85.7143 45.2381H100V54.7619H85.7143V45.2381ZM21.4286 90.4762H78.5714C81.0973 90.4762 83.5197 91.4796 85.3058 93.2656C87.0918 95.0517 88.0952 97.4741 88.0952 100H11.9048C11.9048 97.4741 12.9082 95.0517 14.6942 93.2656C16.4803 91.4796 18.9027 90.4762 21.4286 90.4762ZM50 19.0476C57.5776 19.0476 64.8449 22.0578 70.2031 27.416C75.5612 32.7742 78.5714 40.0414 78.5714 47.619V85.7143H21.4286V47.619C21.4286 40.0414 24.4388 32.7742 29.7969 27.416C35.1551 22.0578 42.4224 19.0476 50 19.0476ZM50 28.5714C44.9483 28.5714 40.1034 30.5782 36.5313 34.1503C32.9592 37.7225 30.9524 42.5673 30.9524 47.619V76.1905H69.0476V47.619C69.0476 42.5673 67.0408 37.7225 63.4687 34.1503C59.8966 30.5782 55.0517 28.5714 50 28.5714Z" fill="white"/>
</svg>
