<svg width="67" height="80" viewBox="0 0 67 80" fill="none" xmlns="http://www.w3.org/2000/svg">
<g filter="url(#filter0_d_299_148)">
<path fill-rule="evenodd" clip-rule="evenodd" d="M53.0922 22.2978C53.3775 22.4269 53.6868 22.495 54 22.4977C54.3127 22.496 54.6215 22.429 54.9069 22.3012C55.1923 22.1733 55.4478 21.9874 55.6573 21.7553C58.3946 18.7106 62.9991 13.0187 62.9991 9.26907C63.0332 6.84706 62.1046 4.51054 60.4173 2.77263C58.73 1.03473 56.422 0.0375148 54 0C51.578 0.0375148 49.27 1.03473 47.5827 2.77263C45.8954 4.51054 44.9668 6.84706 45.0009 9.26907C45.0009 13.0412 49.6054 18.7481 52.3427 21.7478C52.5515 21.9813 52.8068 22.1686 53.0922 22.2978ZM51.5002 12.7402C52.2401 13.2346 53.1101 13.4985 54 13.4985C55.1934 13.4985 56.3378 13.0244 57.1817 12.1806C58.0255 11.3367 58.4996 10.1923 58.4996 8.99891C58.4996 8.10899 58.2357 7.23905 57.7413 6.4991C57.2468 5.75915 56.5441 5.18243 55.7219 4.84187C54.8997 4.50131 53.995 4.41221 53.1222 4.58582C52.2494 4.75944 51.4476 5.18798 50.8184 5.81725C50.1891 6.44653 49.7605 7.24827 49.5869 8.1211C49.4133 8.99392 49.5024 9.89863 49.843 10.7208C50.1835 11.543 50.7603 12.2457 51.5002 12.7402ZM52.3335 6.50476C52.8268 6.17515 53.4067 5.99922 54 5.99922C54.7956 5.99922 55.5586 6.31525 56.1211 6.87781C56.6837 7.44036 56.9997 8.20335 56.9997 8.99891C56.9997 9.5922 56.8238 10.1722 56.4942 10.6655C56.1646 11.1588 55.6961 11.5432 55.1479 11.7703C54.5998 11.9973 53.9967 12.0567 53.4148 11.941C52.8329 11.8252 52.2984 11.5395 51.8789 11.12C51.4594 10.7005 51.1737 10.166 51.058 9.58413C50.9422 9.00224 51.0016 8.3991 51.2287 7.85098C51.4557 7.30286 51.8402 6.83437 52.3335 6.50476Z" fill="#110D0D"/>
<path d="M54 27L49 22C46.125 23.6 42.5 24.5 39 24.5C35.5 24.5 31.85 23.575 29 22C26.15 23.575 22.5 24.5 19 24.5C15.5 24.5 11.875 23.6 9 22L4 27C4 27 9 32 9 37C9 42 4 52 4 57C4 67 29 72 29 72C29 72 54 67 54 57C54 52 49 42 49 37C49 32 54 27 54 27ZM36.625 58.125L28.925 53.475L21.25 58.125L23.3 49.375L16.5 43.525L25.45 42.75L28.925 34.5L32.425 42.725L41.375 43.5L34.575 49.35L36.625 58.125Z" fill="black"/>
</g>
<defs>
<filter id="filter0_d_299_148" x="0" y="0" width="67" height="80" filterUnits="userSpaceOnUse" color-interpolation-filters="sRGB">
<feFlood flood-opacity="0" result="BackgroundImageFix"/>
<feColorMatrix in="SourceAlpha" type="matrix" values="0 0 0 0 0 0 0 0 0 0 0 0 0 0 0 0 0 0 127 0" result="hardAlpha"/>
<feOffset dy="4"/>
<feGaussianBlur stdDeviation="2"/>
<feComposite in2="hardAlpha" operator="out"/>
<feColorMatrix type="matrix" values="0 0 0 0 0 0 0 0 0 0 0 0 0 0 0 0 0 0 0.25 0"/>
<feBlend mode="normal" in2="BackgroundImageFix" result="effect1_dropShadow_299_148"/>
<feBlend mode="normal" in="SourceGraphic" in2="effect1_dropShadow_299_148" result="shape"/>
</filter>
</defs>
</svg>
