<svg width="54" height="65" viewBox="0 0 54 65" fill="none" xmlns="http://www.w3.org/2000/svg">
<path d="M26.7939 30.875C24.256 30.875 21.822 30.0189 20.0274 28.4952C18.2328 26.9715 17.2246 24.9049 17.2246 22.75C17.2246 20.5951 18.2328 18.5285 20.0274 17.0047C21.822 15.481 24.256 14.625 26.7939 14.625C29.3318 14.625 31.7658 15.481 33.5604 17.0047C35.3549 18.5285 36.3631 20.5951 36.3631 22.75C36.3631 23.817 36.1156 24.8735 35.6347 25.8593C35.1538 26.845 34.449 27.7407 33.5604 28.4952C32.6718 29.2497 31.6169 29.8482 30.4559 30.2565C29.2949 30.6648 28.0505 30.875 26.7939 30.875ZM26.7939 0C19.6877 0 12.8726 2.39687 7.84775 6.66331C2.82292 10.9298 0 16.7163 0 22.75C0 39.8125 26.7939 64.9999 26.7939 64.9999C26.7939 64.9999 53.5878 39.8125 53.5878 22.75C53.5878 16.7163 50.7649 10.9298 45.74 6.66331C40.7152 2.39687 33.9001 0 26.7939 0Z" fill="#E23288"/>
</svg>
