<svg width="106" height="105" viewBox="0 0 106 105" fill="none" xmlns="http://www.w3.org/2000/svg">
<path d="M106 8.23505L98.3791 0C93.9971 2.63522 88.4719 4.11753 83.1373 4.11753C77.8026 4.11753 72.2394 2.59404 67.8955 0C63.5515 2.59404 57.9883 4.11753 52.6536 4.11753C47.319 4.11753 41.7938 2.63522 37.4118 0L29.7909 8.23505C29.7909 8.23505 37.4118 16.4701 37.4118 24.7052C37.4118 32.9402 29.7909 49.4103 29.7909 57.6454C29.7909 74.1155 67.8955 82.3505 67.8955 82.3505C67.8955 82.3505 106 74.1155 106 57.6454C106 49.4103 98.3791 32.9402 98.3791 24.7052C98.3791 16.4701 106 8.23505 106 8.23505ZM79.5173 59.4983L67.7811 51.8397L56.083 59.4983L59.2076 45.0869L48.8432 35.4519L62.4846 34.1755L67.7811 20.5876L73.1158 34.1343L86.7572 35.4107L76.3928 45.0457L79.5173 59.4983Z" fill="#E23288"/>
<g clip-path="url(#clip0_299_96)">
<path d="M10.3106 68.7862C14.412 76.3005 21.0199 82.4606 29.0803 86.2842L35.3464 80.4427C36.1439 79.6992 37.2547 79.4868 38.2516 79.7788C41.4416 80.7613 44.8595 81.2923 48.4198 81.2923C49.1752 81.2923 49.8996 81.5721 50.4338 82.07C50.9679 82.568 51.268 83.2433 51.268 83.9476V93.2408C51.268 93.9451 50.9679 94.6204 50.4338 95.1184C49.8996 95.6163 49.1752 95.8961 48.4198 95.8961C35.578 95.8961 23.2623 91.1404 14.1818 82.6752C5.10135 74.21 0 62.7288 0 50.7572C0 50.053 0.300079 49.3776 0.834224 48.8797C1.36837 48.3817 2.09283 48.102 2.84822 48.102H12.817C13.5724 48.102 14.2968 48.3817 14.831 48.8797C15.3651 49.3776 15.6652 50.053 15.6652 50.7572C15.6652 54.0762 16.2349 57.2625 17.2887 60.2364C17.602 61.1657 17.3741 62.2012 16.5766 62.9447L10.3106 68.7862Z" fill="#E23288"/>
</g>
<defs>
<clipPath id="clip0_299_96">
<rect width="68.1579" height="63.5396" fill="white" transform="translate(0 40.7135) scale(1.00293)"/>
</clipPath>
</defs>
</svg>
