<svg width="48" height="63" viewBox="0 0 48 63" fill="none" xmlns="http://www.w3.org/2000/svg">
<path d="M23.6958 0C26.3892 0 28.9722 1.04802 30.8767 2.91352C32.7812 4.77901 33.8511 7.30916 33.8511 9.94737V29.8421C33.8511 32.4803 32.7812 35.0105 30.8767 36.876C28.9722 38.7414 26.3892 39.7895 23.6958 39.7895C21.0024 39.7895 18.4194 38.7414 16.5149 36.876C14.6104 35.0105 13.5405 32.4803 13.5405 29.8421V9.94737C13.5405 7.30916 14.6104 4.77901 16.5149 2.91352C18.4194 1.04802 21.0024 0 23.6958 0ZM47.3916 29.8421C47.3916 41.5468 38.5564 51.1958 27.0809 52.8205V63H20.3107V52.8205C8.83515 51.1958 0 41.5468 0 29.8421H6.77023C6.77023 34.2391 8.55345 38.456 11.7276 41.5652C14.9018 44.6743 19.2069 46.4211 23.6958 46.4211C28.1847 46.4211 32.4898 44.6743 35.664 41.5652C38.8381 38.456 40.6214 34.2391 40.6214 29.8421H47.3916Z" fill="#E23288"/>
</svg>
